<mxfile host="app.diagrams.net" modified="2022-03-30T02:27:55.312Z" agent="5.0 (Windows NT 10.0; Win64; x64) AppleWebKit/537.36 (KHTML, like Gecko) Chrome/99.0.4844.82 Safari/537.36" etag="zusBD1LjiGi6VD7ROUBn" version="17.2.2" type="github" pages="3">
  <diagram id="S0vb76uybG4WvG_J4YGO" name="第 1 页">
    <mxGraphModel dx="1038" dy="547" grid="1" gridSize="10" guides="1" tooltips="1" connect="1" arrows="1" fold="1" page="1" pageScale="1" pageWidth="827" pageHeight="1169" math="0" shadow="0">
      <root>
        <mxCell id="0" />
        <mxCell id="1" parent="0" />
        <mxCell id="0F6DUX3yFJZvCuB5cHR3-31" value="" style="rounded=0;whiteSpace=wrap;html=1;dashed=1;sketch=1;fillColor=none;" vertex="1" parent="1">
          <mxGeometry x="530" y="540" width="240" height="1040" as="geometry" />
        </mxCell>
        <mxCell id="0F6DUX3yFJZvCuB5cHR3-30" value="" style="rounded=0;whiteSpace=wrap;html=1;sketch=1;fillColor=none;dashed=1;" vertex="1" parent="1">
          <mxGeometry x="240" y="540" width="220" height="220" as="geometry" />
        </mxCell>
        <mxCell id="0F6DUX3yFJZvCuB5cHR3-8" style="edgeStyle=orthogonalEdgeStyle;rounded=0;orthogonalLoop=1;jettySize=auto;html=1;exitX=0.5;exitY=1;exitDx=0;exitDy=0;exitPerimeter=0;entryX=0.5;entryY=0;entryDx=0;entryDy=0;" edge="1" parent="1" source="0F6DUX3yFJZvCuB5cHR3-1" target="0F6DUX3yFJZvCuB5cHR3-2">
          <mxGeometry relative="1" as="geometry" />
        </mxCell>
        <mxCell id="0F6DUX3yFJZvCuB5cHR3-1" value="" style="strokeWidth=2;html=1;shape=mxgraph.flowchart.start_2;whiteSpace=wrap;sketch=1;" vertex="1" parent="1">
          <mxGeometry x="300" y="30" width="100" height="100" as="geometry" />
        </mxCell>
        <mxCell id="0F6DUX3yFJZvCuB5cHR3-9" style="edgeStyle=orthogonalEdgeStyle;rounded=0;orthogonalLoop=1;jettySize=auto;html=1;exitX=0.5;exitY=1;exitDx=0;exitDy=0;entryX=0.5;entryY=0;entryDx=0;entryDy=0;" edge="1" parent="1" source="0F6DUX3yFJZvCuB5cHR3-2" target="0F6DUX3yFJZvCuB5cHR3-3">
          <mxGeometry relative="1" as="geometry" />
        </mxCell>
        <mxCell id="0F6DUX3yFJZvCuB5cHR3-2" value="获取审核模板策略类" style="rounded=1;whiteSpace=wrap;html=1;sketch=1;fillColor=#d5e8d4;strokeColor=#82b366;" vertex="1" parent="1">
          <mxGeometry x="290" y="180" width="120" height="60" as="geometry" />
        </mxCell>
        <mxCell id="0F6DUX3yFJZvCuB5cHR3-10" style="edgeStyle=orthogonalEdgeStyle;rounded=0;orthogonalLoop=1;jettySize=auto;html=1;exitX=0.5;exitY=1;exitDx=0;exitDy=0;" edge="1" parent="1" source="0F6DUX3yFJZvCuB5cHR3-3" target="0F6DUX3yFJZvCuB5cHR3-4">
          <mxGeometry relative="1" as="geometry" />
        </mxCell>
        <mxCell id="0F6DUX3yFJZvCuB5cHR3-3" value="构建审核流程参数" style="rounded=1;whiteSpace=wrap;html=1;sketch=1;fillColor=#d5e8d4;strokeColor=#82b366;" vertex="1" parent="1">
          <mxGeometry x="290" y="310" width="120" height="60" as="geometry" />
        </mxCell>
        <mxCell id="0F6DUX3yFJZvCuB5cHR3-11" style="edgeStyle=orthogonalEdgeStyle;rounded=0;orthogonalLoop=1;jettySize=auto;html=1;exitX=0.5;exitY=1;exitDx=0;exitDy=0;" edge="1" parent="1" source="0F6DUX3yFJZvCuB5cHR3-4" target="0F6DUX3yFJZvCuB5cHR3-7">
          <mxGeometry relative="1" as="geometry" />
        </mxCell>
        <mxCell id="0F6DUX3yFJZvCuB5cHR3-4" value="发起审核" style="rounded=1;whiteSpace=wrap;html=1;sketch=1;" vertex="1" parent="1">
          <mxGeometry x="290" y="440" width="120" height="60" as="geometry" />
        </mxCell>
        <mxCell id="0F6DUX3yFJZvCuB5cHR3-21" style="edgeStyle=orthogonalEdgeStyle;rounded=0;orthogonalLoop=1;jettySize=auto;html=1;exitX=0.5;exitY=1;exitDx=0;exitDy=0;entryX=0.5;entryY=0;entryDx=0;entryDy=0;" edge="1" parent="1" source="0F6DUX3yFJZvCuB5cHR3-5" target="0F6DUX3yFJZvCuB5cHR3-6">
          <mxGeometry relative="1" as="geometry" />
        </mxCell>
        <mxCell id="0F6DUX3yFJZvCuB5cHR3-5" value="接收MQ结果" style="rounded=1;whiteSpace=wrap;html=1;sketch=1;" vertex="1" parent="1">
          <mxGeometry x="610" y="440" width="120" height="60" as="geometry" />
        </mxCell>
        <mxCell id="0F6DUX3yFJZvCuB5cHR3-42" style="edgeStyle=orthogonalEdgeStyle;rounded=0;orthogonalLoop=1;jettySize=auto;html=1;exitX=0.5;exitY=1;exitDx=0;exitDy=0;entryX=0.5;entryY=0;entryDx=0;entryDy=0;" edge="1" parent="1" source="0F6DUX3yFJZvCuB5cHR3-6" target="0F6DUX3yFJZvCuB5cHR3-32">
          <mxGeometry relative="1" as="geometry" />
        </mxCell>
        <mxCell id="0F6DUX3yFJZvCuB5cHR3-6" value="修改审核结果" style="rounded=1;whiteSpace=wrap;html=1;sketch=1;fillColor=#d5e8d4;strokeColor=#82b366;" vertex="1" parent="1">
          <mxGeometry x="610" y="555" width="120" height="60" as="geometry" />
        </mxCell>
        <mxCell id="0F6DUX3yFJZvCuB5cHR3-27" style="edgeStyle=orthogonalEdgeStyle;rounded=0;orthogonalLoop=1;jettySize=auto;html=1;exitX=0.5;exitY=1;exitDx=0;exitDy=0;entryX=0.5;entryY=0;entryDx=0;entryDy=0;" edge="1" parent="1" source="0F6DUX3yFJZvCuB5cHR3-7" target="0F6DUX3yFJZvCuB5cHR3-26">
          <mxGeometry relative="1" as="geometry" />
        </mxCell>
        <mxCell id="0F6DUX3yFJZvCuB5cHR3-7" value="发起审核后处理业务" style="rounded=1;whiteSpace=wrap;html=1;sketch=1;fillColor=#d5e8d4;strokeColor=#82b366;" vertex="1" parent="1">
          <mxGeometry x="290" y="560" width="120" height="60" as="geometry" />
        </mxCell>
        <mxCell id="0F6DUX3yFJZvCuB5cHR3-17" style="edgeStyle=orthogonalEdgeStyle;rounded=0;orthogonalLoop=1;jettySize=auto;html=1;exitX=0.5;exitY=1;exitDx=0;exitDy=0;exitPerimeter=0;entryX=0.5;entryY=0;entryDx=0;entryDy=0;" edge="1" parent="1" source="0F6DUX3yFJZvCuB5cHR3-15" target="0F6DUX3yFJZvCuB5cHR3-16">
          <mxGeometry relative="1" as="geometry" />
        </mxCell>
        <mxCell id="0F6DUX3yFJZvCuB5cHR3-15" value="" style="strokeWidth=2;html=1;shape=mxgraph.flowchart.start_2;whiteSpace=wrap;sketch=1;" vertex="1" parent="1">
          <mxGeometry x="620" y="40" width="100" height="100" as="geometry" />
        </mxCell>
        <mxCell id="0F6DUX3yFJZvCuB5cHR3-19" style="edgeStyle=orthogonalEdgeStyle;rounded=0;orthogonalLoop=1;jettySize=auto;html=1;exitX=0.5;exitY=1;exitDx=0;exitDy=0;entryX=0.5;entryY=0;entryDx=0;entryDy=0;" edge="1" parent="1" source="0F6DUX3yFJZvCuB5cHR3-16" target="0F6DUX3yFJZvCuB5cHR3-18">
          <mxGeometry relative="1" as="geometry" />
        </mxCell>
        <mxCell id="0F6DUX3yFJZvCuB5cHR3-16" value="TKS审核" style="rounded=1;whiteSpace=wrap;html=1;sketch=1;" vertex="1" parent="1">
          <mxGeometry x="610" y="190" width="120" height="60" as="geometry" />
        </mxCell>
        <mxCell id="0F6DUX3yFJZvCuB5cHR3-20" style="edgeStyle=orthogonalEdgeStyle;rounded=0;orthogonalLoop=1;jettySize=auto;html=1;exitX=0.5;exitY=1;exitDx=0;exitDy=0;entryX=0.5;entryY=0;entryDx=0;entryDy=0;" edge="1" parent="1" source="0F6DUX3yFJZvCuB5cHR3-18" target="0F6DUX3yFJZvCuB5cHR3-5">
          <mxGeometry relative="1" as="geometry" />
        </mxCell>
        <mxCell id="0F6DUX3yFJZvCuB5cHR3-18" value="&lt;span&gt;发送审核结果MQ&lt;/span&gt;" style="rounded=1;whiteSpace=wrap;html=1;sketch=1;" vertex="1" parent="1">
          <mxGeometry x="610" y="310" width="120" height="60" as="geometry" />
        </mxCell>
        <mxCell id="0F6DUX3yFJZvCuB5cHR3-22" value="" style="strokeWidth=2;html=1;shape=mxgraph.flowchart.terminator;whiteSpace=wrap;sketch=1;" vertex="1" parent="1">
          <mxGeometry x="620" y="1270" width="100" height="60" as="geometry" />
        </mxCell>
        <mxCell id="0F6DUX3yFJZvCuB5cHR3-29" style="edgeStyle=orthogonalEdgeStyle;rounded=0;orthogonalLoop=1;jettySize=auto;html=1;exitX=0.5;exitY=1;exitDx=0;exitDy=0;entryX=0.5;entryY=0;entryDx=0;entryDy=0;entryPerimeter=0;" edge="1" parent="1" source="0F6DUX3yFJZvCuB5cHR3-26" target="0F6DUX3yFJZvCuB5cHR3-28">
          <mxGeometry relative="1" as="geometry" />
        </mxCell>
        <mxCell id="0F6DUX3yFJZvCuB5cHR3-26" value="修改风险评估记录状态" style="rounded=1;whiteSpace=wrap;html=1;sketch=1;fillColor=#d5e8d4;strokeColor=#82b366;" vertex="1" parent="1">
          <mxGeometry x="290" y="670" width="120" height="60" as="geometry" />
        </mxCell>
        <mxCell id="0F6DUX3yFJZvCuB5cHR3-28" value="" style="strokeWidth=2;html=1;shape=mxgraph.flowchart.terminator;whiteSpace=wrap;sketch=1;" vertex="1" parent="1">
          <mxGeometry x="300" y="780" width="100" height="60" as="geometry" />
        </mxCell>
        <mxCell id="0F6DUX3yFJZvCuB5cHR3-34" value="" style="edgeStyle=orthogonalEdgeStyle;rounded=0;orthogonalLoop=1;jettySize=auto;html=1;" edge="1" parent="1" source="0F6DUX3yFJZvCuB5cHR3-32" target="0F6DUX3yFJZvCuB5cHR3-33">
          <mxGeometry relative="1" as="geometry" />
        </mxCell>
        <mxCell id="0F6DUX3yFJZvCuB5cHR3-32" value="修改风险评估记录" style="rounded=1;whiteSpace=wrap;html=1;dashed=1;sketch=1;fillColor=none;" vertex="1" parent="1">
          <mxGeometry x="610" y="660" width="120" height="60" as="geometry" />
        </mxCell>
        <mxCell id="0F6DUX3yFJZvCuB5cHR3-40" style="edgeStyle=orthogonalEdgeStyle;rounded=0;orthogonalLoop=1;jettySize=auto;html=1;exitX=0.5;exitY=1;exitDx=0;exitDy=0;entryX=0.5;entryY=0;entryDx=0;entryDy=0;" edge="1" parent="1" source="0F6DUX3yFJZvCuB5cHR3-33" target="0F6DUX3yFJZvCuB5cHR3-35">
          <mxGeometry relative="1" as="geometry" />
        </mxCell>
        <mxCell id="0F6DUX3yFJZvCuB5cHR3-33" value="添加风险评估项" style="whiteSpace=wrap;html=1;fillColor=none;rounded=1;dashed=1;sketch=1;" vertex="1" parent="1">
          <mxGeometry x="610" y="770" width="120" height="60" as="geometry" />
        </mxCell>
        <mxCell id="0F6DUX3yFJZvCuB5cHR3-41" style="edgeStyle=orthogonalEdgeStyle;rounded=0;orthogonalLoop=1;jettySize=auto;html=1;exitX=0.5;exitY=1;exitDx=0;exitDy=0;entryX=0.5;entryY=0;entryDx=0;entryDy=0;" edge="1" parent="1" source="0F6DUX3yFJZvCuB5cHR3-35" target="0F6DUX3yFJZvCuB5cHR3-36">
          <mxGeometry relative="1" as="geometry" />
        </mxCell>
        <mxCell id="0F6DUX3yFJZvCuB5cHR3-35" value="更新风险评估状态" style="rounded=1;whiteSpace=wrap;html=1;dashed=1;sketch=1;fillColor=none;" vertex="1" parent="1">
          <mxGeometry x="610" y="880" width="120" height="60" as="geometry" />
        </mxCell>
        <mxCell id="0F6DUX3yFJZvCuB5cHR3-38" value="" style="edgeStyle=orthogonalEdgeStyle;rounded=0;orthogonalLoop=1;jettySize=auto;html=1;" edge="1" parent="1" source="0F6DUX3yFJZvCuB5cHR3-36" target="0F6DUX3yFJZvCuB5cHR3-37">
          <mxGeometry relative="1" as="geometry" />
        </mxCell>
        <mxCell id="0F6DUX3yFJZvCuB5cHR3-36" value="更新客户业务风险记录" style="rounded=1;whiteSpace=wrap;html=1;dashed=1;sketch=1;fillColor=none;" vertex="1" parent="1">
          <mxGeometry x="610" y="1010" width="120" height="60" as="geometry" />
        </mxCell>
        <mxCell id="0F6DUX3yFJZvCuB5cHR3-39" style="edgeStyle=orthogonalEdgeStyle;rounded=0;orthogonalLoop=1;jettySize=auto;html=1;exitX=0.5;exitY=1;exitDx=0;exitDy=0;entryX=0.5;entryY=0;entryDx=0;entryDy=0;entryPerimeter=0;" edge="1" parent="1" source="0F6DUX3yFJZvCuB5cHR3-37" target="0F6DUX3yFJZvCuB5cHR3-22">
          <mxGeometry relative="1" as="geometry" />
        </mxCell>
        <mxCell id="0F6DUX3yFJZvCuB5cHR3-37" value="更新OPS审核时修改的客户信息" style="whiteSpace=wrap;html=1;fillColor=none;rounded=1;dashed=1;sketch=1;" vertex="1" parent="1">
          <mxGeometry x="610" y="1150" width="120" height="60" as="geometry" />
        </mxCell>
        <mxCell id="0F6DUX3yFJZvCuB5cHR3-43" value="修改审核结果" style="text;html=1;strokeColor=none;fillColor=none;align=center;verticalAlign=middle;whiteSpace=wrap;rounded=0;dashed=1;sketch=1;" vertex="1" parent="1">
          <mxGeometry x="540" y="690" width="20" height="205" as="geometry" />
        </mxCell>
      </root>
    </mxGraphModel>
  </diagram>
  <diagram id="Obu8ZSAQrXCDBPhZpxrK" name="第 2 页">
    <mxGraphModel dx="1483" dy="781" grid="1" gridSize="10" guides="1" tooltips="1" connect="1" arrows="1" fold="1" page="1" pageScale="1" pageWidth="827" pageHeight="1169" math="0" shadow="0">
      <root>
        <mxCell id="0" />
        <mxCell id="1" parent="0" />
        <mxCell id="b-oMOpHg9CBX-mJrEFGp-2" value="&lt;p style=&quot;margin: 0px ; margin-top: 4px ; text-align: center&quot;&gt;&lt;i&gt;&amp;lt;&amp;lt;Interface&amp;gt;&amp;gt;&lt;/i&gt;&lt;br&gt;&lt;b&gt;IApprovalService&lt;/b&gt;&lt;br&gt;&lt;/p&gt;&lt;hr size=&quot;1&quot;&gt;&lt;p style=&quot;margin: 0px ; margin-left: 4px&quot;&gt;&lt;/p&gt;&lt;p style=&quot;margin: 0px ; margin-left: 4px&quot;&gt;+ getApproveTemplate(): String&lt;br&gt;+ buildApprovalMap(): Map;&lt;/p&gt;&lt;p style=&quot;margin: 0px ; margin-left: 4px&quot;&gt;+ processSuccess(...): boolean&lt;br&gt;&lt;/p&gt;&lt;p style=&quot;margin: 0px ; margin-left: 4px&quot;&gt;+&amp;nbsp;updateManualApprove(...): void&lt;/p&gt;" style="verticalAlign=top;align=left;overflow=fill;fontSize=12;fontFamily=Helvetica;html=1;dashed=1;sketch=1;fillColor=none;" vertex="1" parent="1">
          <mxGeometry x="350" y="210" width="240" height="120" as="geometry" />
        </mxCell>
        <mxCell id="b-oMOpHg9CBX-mJrEFGp-10" value="" style="endArrow=block;dashed=1;endFill=0;endSize=12;html=1;rounded=0;" edge="1" parent="1" source="b-oMOpHg9CBX-mJrEFGp-2">
          <mxGeometry width="160" relative="1" as="geometry">
            <mxPoint x="470" y="330" as="sourcePoint" />
            <mxPoint x="470" y="400" as="targetPoint" />
          </mxGeometry>
        </mxCell>
        <mxCell id="b-oMOpHg9CBX-mJrEFGp-13" value="&lt;p style=&quot;margin: 0px ; margin-top: 4px ; text-align: center&quot;&gt;&lt;b&gt;AbstractCustomerApprovalHandler&lt;/b&gt;&lt;br&gt;&lt;/p&gt;&lt;hr size=&quot;1&quot;&gt;&lt;div style=&quot;height: 2px&quot;&gt;+ buildApprovalMap(): Map;&lt;br&gt;&lt;/div&gt;" style="verticalAlign=top;align=left;overflow=fill;fontSize=12;fontFamily=Helvetica;html=1;dashed=1;sketch=1;fillColor=none;" vertex="1" parent="1">
          <mxGeometry x="360" y="400" width="240" height="90" as="geometry" />
        </mxCell>
        <mxCell id="b-oMOpHg9CBX-mJrEFGp-14" value="ApprovalRequestUtil" style="swimlane;fontStyle=1;align=center;verticalAlign=top;childLayout=stackLayout;horizontal=1;startSize=26;horizontalStack=0;resizeParent=1;resizeParentMax=0;resizeLast=0;collapsible=1;marginBottom=0;dashed=1;sketch=1;fillColor=none;" vertex="1" parent="1">
          <mxGeometry x="340" y="50" width="260" height="60" as="geometry" />
        </mxCell>
        <mxCell id="b-oMOpHg9CBX-mJrEFGp-16" value="" style="line;strokeWidth=1;fillColor=none;align=left;verticalAlign=middle;spacingTop=-1;spacingLeft=3;spacingRight=3;rotatable=0;labelPosition=right;points=[];portConstraint=eastwest;dashed=1;sketch=1;" vertex="1" parent="b-oMOpHg9CBX-mJrEFGp-14">
          <mxGeometry y="26" width="260" height="8" as="geometry" />
        </mxCell>
        <mxCell id="b-oMOpHg9CBX-mJrEFGp-17" value="+ getApprovalService: IApprovalService" style="text;strokeColor=none;fillColor=none;align=left;verticalAlign=top;spacingLeft=4;spacingRight=4;overflow=hidden;rotatable=0;points=[[0,0.5],[1,0.5]];portConstraint=eastwest;dashed=1;sketch=1;" vertex="1" parent="b-oMOpHg9CBX-mJrEFGp-14">
          <mxGeometry y="34" width="260" height="26" as="geometry" />
        </mxCell>
        <mxCell id="b-oMOpHg9CBX-mJrEFGp-18" value="Use" style="endArrow=open;endSize=12;dashed=1;html=1;rounded=0;entryX=0.5;entryY=0;entryDx=0;entryDy=0;" edge="1" parent="1" target="b-oMOpHg9CBX-mJrEFGp-2">
          <mxGeometry width="160" relative="1" as="geometry">
            <mxPoint x="470" y="110" as="sourcePoint" />
            <mxPoint x="630" y="110" as="targetPoint" />
          </mxGeometry>
        </mxCell>
        <mxCell id="b-oMOpHg9CBX-mJrEFGp-19" value="KycApprovalHandler" style="swimlane;fontStyle=1;align=center;verticalAlign=top;childLayout=stackLayout;horizontal=1;startSize=26;horizontalStack=0;resizeParent=1;resizeParentMax=0;resizeLast=0;collapsible=1;marginBottom=0;dashed=1;sketch=1;fillColor=none;" vertex="1" parent="1">
          <mxGeometry x="46.5" y="610" width="160" height="60" as="geometry" />
        </mxCell>
        <mxCell id="b-oMOpHg9CBX-mJrEFGp-21" value="" style="line;strokeWidth=1;fillColor=none;align=left;verticalAlign=middle;spacingTop=-1;spacingLeft=3;spacingRight=3;rotatable=0;labelPosition=right;points=[];portConstraint=eastwest;dashed=1;sketch=1;" vertex="1" parent="b-oMOpHg9CBX-mJrEFGp-19">
          <mxGeometry y="26" width="160" height="8" as="geometry" />
        </mxCell>
        <mxCell id="b-oMOpHg9CBX-mJrEFGp-22" value="+ method(type): type" style="text;strokeColor=none;fillColor=none;align=left;verticalAlign=top;spacingLeft=4;spacingRight=4;overflow=hidden;rotatable=0;points=[[0,0.5],[1,0.5]];portConstraint=eastwest;dashed=1;sketch=1;" vertex="1" parent="b-oMOpHg9CBX-mJrEFGp-19">
          <mxGeometry y="34" width="160" height="26" as="geometry" />
        </mxCell>
        <mxCell id="b-oMOpHg9CBX-mJrEFGp-23" value="DaApprovalHandler" style="swimlane;fontStyle=1;align=center;verticalAlign=top;childLayout=stackLayout;horizontal=1;startSize=26;horizontalStack=0;resizeParent=1;resizeParentMax=0;resizeLast=0;collapsible=1;marginBottom=0;dashed=1;sketch=1;fillColor=none;" vertex="1" parent="1">
          <mxGeometry x="296.5" y="610" width="160" height="60" as="geometry" />
        </mxCell>
        <mxCell id="b-oMOpHg9CBX-mJrEFGp-24" value="" style="line;strokeWidth=1;fillColor=none;align=left;verticalAlign=middle;spacingTop=-1;spacingLeft=3;spacingRight=3;rotatable=0;labelPosition=right;points=[];portConstraint=eastwest;dashed=1;sketch=1;" vertex="1" parent="b-oMOpHg9CBX-mJrEFGp-23">
          <mxGeometry y="26" width="160" height="8" as="geometry" />
        </mxCell>
        <mxCell id="b-oMOpHg9CBX-mJrEFGp-25" value="+ method(type): type" style="text;strokeColor=none;fillColor=none;align=left;verticalAlign=top;spacingLeft=4;spacingRight=4;overflow=hidden;rotatable=0;points=[[0,0.5],[1,0.5]];portConstraint=eastwest;dashed=1;sketch=1;" vertex="1" parent="b-oMOpHg9CBX-mJrEFGp-23">
          <mxGeometry y="34" width="160" height="26" as="geometry" />
        </mxCell>
        <mxCell id="b-oMOpHg9CBX-mJrEFGp-26" value="DaApprovalHandler" style="swimlane;fontStyle=1;align=center;verticalAlign=top;childLayout=stackLayout;horizontal=1;startSize=26;horizontalStack=0;resizeParent=1;resizeParentMax=0;resizeLast=0;collapsible=1;marginBottom=0;dashed=1;sketch=1;fillColor=none;" vertex="1" parent="1">
          <mxGeometry x="753.5" y="610" width="160" height="60" as="geometry" />
        </mxCell>
        <mxCell id="b-oMOpHg9CBX-mJrEFGp-27" value="" style="line;strokeWidth=1;fillColor=none;align=left;verticalAlign=middle;spacingTop=-1;spacingLeft=3;spacingRight=3;rotatable=0;labelPosition=right;points=[];portConstraint=eastwest;dashed=1;sketch=1;" vertex="1" parent="b-oMOpHg9CBX-mJrEFGp-26">
          <mxGeometry y="26" width="160" height="8" as="geometry" />
        </mxCell>
        <mxCell id="b-oMOpHg9CBX-mJrEFGp-28" value="+ method(type): type" style="text;strokeColor=none;fillColor=none;align=left;verticalAlign=top;spacingLeft=4;spacingRight=4;overflow=hidden;rotatable=0;points=[[0,0.5],[1,0.5]];portConstraint=eastwest;dashed=1;sketch=1;" vertex="1" parent="b-oMOpHg9CBX-mJrEFGp-26">
          <mxGeometry y="34" width="160" height="26" as="geometry" />
        </mxCell>
        <mxCell id="b-oMOpHg9CBX-mJrEFGp-29" value="DaApprovalHandler" style="swimlane;fontStyle=1;align=center;verticalAlign=top;childLayout=stackLayout;horizontal=1;startSize=26;horizontalStack=0;resizeParent=1;resizeParentMax=0;resizeLast=0;collapsible=1;marginBottom=0;dashed=1;sketch=1;fillColor=none;" vertex="1" parent="1">
          <mxGeometry x="516.5" y="610" width="160" height="60" as="geometry" />
        </mxCell>
        <mxCell id="b-oMOpHg9CBX-mJrEFGp-30" value="" style="line;strokeWidth=1;fillColor=none;align=left;verticalAlign=middle;spacingTop=-1;spacingLeft=3;spacingRight=3;rotatable=0;labelPosition=right;points=[];portConstraint=eastwest;dashed=1;sketch=1;" vertex="1" parent="b-oMOpHg9CBX-mJrEFGp-29">
          <mxGeometry y="26" width="160" height="8" as="geometry" />
        </mxCell>
        <mxCell id="b-oMOpHg9CBX-mJrEFGp-31" value="+ method(type): type" style="text;strokeColor=none;fillColor=none;align=left;verticalAlign=top;spacingLeft=4;spacingRight=4;overflow=hidden;rotatable=0;points=[[0,0.5],[1,0.5]];portConstraint=eastwest;dashed=1;sketch=1;" vertex="1" parent="b-oMOpHg9CBX-mJrEFGp-29">
          <mxGeometry y="34" width="160" height="26" as="geometry" />
        </mxCell>
        <mxCell id="b-oMOpHg9CBX-mJrEFGp-33" value="Extends" style="endArrow=block;endSize=16;endFill=0;html=1;rounded=0;exitX=0.5;exitY=1;exitDx=0;exitDy=0;entryX=0.5;entryY=0;entryDx=0;entryDy=0;" edge="1" parent="1" source="b-oMOpHg9CBX-mJrEFGp-13" target="b-oMOpHg9CBX-mJrEFGp-19">
          <mxGeometry width="160" relative="1" as="geometry">
            <mxPoint x="350" y="570" as="sourcePoint" />
            <mxPoint x="510" y="570" as="targetPoint" />
          </mxGeometry>
        </mxCell>
        <mxCell id="b-oMOpHg9CBX-mJrEFGp-34" value="Extends" style="endArrow=block;endSize=16;endFill=0;html=1;rounded=0;exitX=0.5;exitY=1;exitDx=0;exitDy=0;entryX=0.5;entryY=0;entryDx=0;entryDy=0;" edge="1" parent="1" source="b-oMOpHg9CBX-mJrEFGp-13" target="b-oMOpHg9CBX-mJrEFGp-23">
          <mxGeometry width="160" relative="1" as="geometry">
            <mxPoint x="490" y="500" as="sourcePoint" />
            <mxPoint x="136.5" y="620" as="targetPoint" />
          </mxGeometry>
        </mxCell>
        <mxCell id="b-oMOpHg9CBX-mJrEFGp-35" value="Extends" style="endArrow=block;endSize=16;endFill=0;html=1;rounded=0;exitX=0.5;exitY=1;exitDx=0;exitDy=0;entryX=0.5;entryY=0;entryDx=0;entryDy=0;" edge="1" parent="1" source="b-oMOpHg9CBX-mJrEFGp-13" target="b-oMOpHg9CBX-mJrEFGp-29">
          <mxGeometry width="160" relative="1" as="geometry">
            <mxPoint x="500" y="510" as="sourcePoint" />
            <mxPoint x="146.5" y="630" as="targetPoint" />
          </mxGeometry>
        </mxCell>
        <mxCell id="b-oMOpHg9CBX-mJrEFGp-36" value="Extends" style="endArrow=block;endSize=16;endFill=0;html=1;rounded=0;exitX=0.5;exitY=1;exitDx=0;exitDy=0;entryX=0.5;entryY=0;entryDx=0;entryDy=0;" edge="1" parent="1" source="b-oMOpHg9CBX-mJrEFGp-13" target="b-oMOpHg9CBX-mJrEFGp-26">
          <mxGeometry width="160" relative="1" as="geometry">
            <mxPoint x="490" y="500" as="sourcePoint" />
            <mxPoint x="606.5" y="620" as="targetPoint" />
          </mxGeometry>
        </mxCell>
      </root>
    </mxGraphModel>
  </diagram>
  <diagram id="PD1CeXV8D4XvTuQoC1uN" name="第 3 页">
    <mxGraphModel dx="1221" dy="578" grid="1" gridSize="10" guides="1" tooltips="1" connect="1" arrows="1" fold="1" page="1" pageScale="1" pageWidth="827" pageHeight="1169" math="0" shadow="0">
      <root>
        <mxCell id="0" />
        <mxCell id="1" parent="0" />
        <mxCell id="uFHnxJC9vxhWgr_NbSu9-1" value="&lt;p style=&quot;margin: 0px ; margin-top: 4px ; text-align: center&quot;&gt;&lt;i&gt;&amp;lt;&amp;lt;Interface&amp;gt;&amp;gt;&lt;/i&gt;&lt;br&gt;&lt;b&gt;IApprovalService&lt;/b&gt;&lt;br&gt;&lt;/p&gt;&lt;hr size=&quot;1&quot;&gt;&lt;p style=&quot;margin: 0px ; margin-left: 4px&quot;&gt;&lt;/p&gt;&lt;p style=&quot;margin: 0px ; margin-left: 4px&quot;&gt;+ getApproveTemplate(): String&lt;br&gt;+ buildApprovalMap(): Map;&lt;/p&gt;&lt;p style=&quot;margin: 0px ; margin-left: 4px&quot;&gt;+ processSuccess(...): boolean&lt;br&gt;&lt;/p&gt;&lt;p style=&quot;margin: 0px ; margin-left: 4px&quot;&gt;+&amp;nbsp;updateManualApprove(...): void&lt;/p&gt;" style="verticalAlign=top;align=left;overflow=fill;fontSize=12;fontFamily=Helvetica;html=1;sketch=1;" vertex="1" parent="1">
          <mxGeometry x="350" y="210" width="240" height="120" as="geometry" />
        </mxCell>
        <mxCell id="uFHnxJC9vxhWgr_NbSu9-2" value="" style="endArrow=block;dashed=1;endFill=0;endSize=12;html=1;rounded=0;" edge="1" parent="1" source="uFHnxJC9vxhWgr_NbSu9-1">
          <mxGeometry width="160" relative="1" as="geometry">
            <mxPoint x="470" y="330" as="sourcePoint" />
            <mxPoint x="470" y="400" as="targetPoint" />
          </mxGeometry>
        </mxCell>
        <mxCell id="uFHnxJC9vxhWgr_NbSu9-3" value="&lt;p style=&quot;margin: 0px ; margin-top: 4px ; text-align: center&quot;&gt;&lt;b&gt;AbstractCustomerApprovalHandler&lt;/b&gt;&lt;br&gt;&lt;/p&gt;&lt;hr size=&quot;1&quot;&gt;&lt;div style=&quot;height: 2px&quot;&gt;+ buildApprovalMap(): Map;&lt;br&gt;&lt;/div&gt;" style="verticalAlign=top;align=left;overflow=fill;fontSize=12;fontFamily=Helvetica;html=1;sketch=1;fillColor=none;" vertex="1" parent="1">
          <mxGeometry x="360" y="400" width="240" height="90" as="geometry" />
        </mxCell>
        <mxCell id="uFHnxJC9vxhWgr_NbSu9-4" value="ApprovalRequestUtil" style="swimlane;fontStyle=1;align=center;verticalAlign=top;childLayout=stackLayout;horizontal=1;startSize=26;horizontalStack=0;resizeParent=1;resizeParentMax=0;resizeLast=0;collapsible=1;marginBottom=0;sketch=1;fillColor=none;" vertex="1" parent="1">
          <mxGeometry x="340" y="50" width="260" height="60" as="geometry" />
        </mxCell>
        <mxCell id="uFHnxJC9vxhWgr_NbSu9-5" value="" style="line;strokeWidth=1;fillColor=none;align=left;verticalAlign=middle;spacingTop=-1;spacingLeft=3;spacingRight=3;rotatable=0;labelPosition=right;points=[];portConstraint=eastwest;dashed=1;sketch=1;" vertex="1" parent="uFHnxJC9vxhWgr_NbSu9-4">
          <mxGeometry y="26" width="260" height="8" as="geometry" />
        </mxCell>
        <mxCell id="uFHnxJC9vxhWgr_NbSu9-6" value="+ getApprovalService: IApprovalService" style="text;strokeColor=none;fillColor=none;align=left;verticalAlign=top;spacingLeft=4;spacingRight=4;overflow=hidden;rotatable=0;points=[[0,0.5],[1,0.5]];portConstraint=eastwest;dashed=1;sketch=1;" vertex="1" parent="uFHnxJC9vxhWgr_NbSu9-4">
          <mxGeometry y="34" width="260" height="26" as="geometry" />
        </mxCell>
        <mxCell id="uFHnxJC9vxhWgr_NbSu9-7" value="Use" style="endArrow=open;endSize=12;dashed=1;html=1;rounded=0;entryX=0.5;entryY=0;entryDx=0;entryDy=0;" edge="1" parent="1" target="uFHnxJC9vxhWgr_NbSu9-1">
          <mxGeometry width="160" relative="1" as="geometry">
            <mxPoint x="470" y="110" as="sourcePoint" />
            <mxPoint x="630" y="110" as="targetPoint" />
          </mxGeometry>
        </mxCell>
        <mxCell id="uFHnxJC9vxhWgr_NbSu9-8" value="KycApprovalHandler" style="swimlane;fontStyle=1;align=center;verticalAlign=top;childLayout=stackLayout;horizontal=1;startSize=26;horizontalStack=0;resizeParent=1;resizeParentMax=0;resizeLast=0;collapsible=1;marginBottom=0;sketch=1;fillColor=none;" vertex="1" parent="1">
          <mxGeometry x="46.5" y="610" width="160" height="60" as="geometry" />
        </mxCell>
        <mxCell id="uFHnxJC9vxhWgr_NbSu9-9" value="" style="line;strokeWidth=1;fillColor=none;align=left;verticalAlign=middle;spacingTop=-1;spacingLeft=3;spacingRight=3;rotatable=0;labelPosition=right;points=[];portConstraint=eastwest;dashed=1;sketch=1;" vertex="1" parent="uFHnxJC9vxhWgr_NbSu9-8">
          <mxGeometry y="26" width="160" height="8" as="geometry" />
        </mxCell>
        <mxCell id="uFHnxJC9vxhWgr_NbSu9-10" value="+ method(type): type" style="text;strokeColor=none;fillColor=none;align=left;verticalAlign=top;spacingLeft=4;spacingRight=4;overflow=hidden;rotatable=0;points=[[0,0.5],[1,0.5]];portConstraint=eastwest;dashed=1;sketch=1;" vertex="1" parent="uFHnxJC9vxhWgr_NbSu9-8">
          <mxGeometry y="34" width="160" height="26" as="geometry" />
        </mxCell>
        <mxCell id="uFHnxJC9vxhWgr_NbSu9-11" value="DaApprovalHandler" style="swimlane;fontStyle=1;align=center;verticalAlign=top;childLayout=stackLayout;horizontal=1;startSize=26;horizontalStack=0;resizeParent=1;resizeParentMax=0;resizeLast=0;collapsible=1;marginBottom=0;sketch=1;fillColor=none;" vertex="1" parent="1">
          <mxGeometry x="296.5" y="610" width="160" height="60" as="geometry" />
        </mxCell>
        <mxCell id="uFHnxJC9vxhWgr_NbSu9-12" value="" style="line;strokeWidth=1;fillColor=none;align=left;verticalAlign=middle;spacingTop=-1;spacingLeft=3;spacingRight=3;rotatable=0;labelPosition=right;points=[];portConstraint=eastwest;dashed=1;sketch=1;" vertex="1" parent="uFHnxJC9vxhWgr_NbSu9-11">
          <mxGeometry y="26" width="160" height="8" as="geometry" />
        </mxCell>
        <mxCell id="uFHnxJC9vxhWgr_NbSu9-13" value="+ method(type): type" style="text;strokeColor=none;fillColor=none;align=left;verticalAlign=top;spacingLeft=4;spacingRight=4;overflow=hidden;rotatable=0;points=[[0,0.5],[1,0.5]];portConstraint=eastwest;dashed=1;sketch=1;" vertex="1" parent="uFHnxJC9vxhWgr_NbSu9-11">
          <mxGeometry y="34" width="160" height="26" as="geometry" />
        </mxCell>
        <mxCell id="uFHnxJC9vxhWgr_NbSu9-14" value="DaApprovalHandler" style="swimlane;fontStyle=1;align=center;verticalAlign=top;childLayout=stackLayout;horizontal=1;startSize=26;horizontalStack=0;resizeParent=1;resizeParentMax=0;resizeLast=0;collapsible=1;marginBottom=0;sketch=1;fillColor=none;" vertex="1" parent="1">
          <mxGeometry x="753.5" y="610" width="160" height="60" as="geometry" />
        </mxCell>
        <mxCell id="uFHnxJC9vxhWgr_NbSu9-15" value="" style="line;strokeWidth=1;fillColor=none;align=left;verticalAlign=middle;spacingTop=-1;spacingLeft=3;spacingRight=3;rotatable=0;labelPosition=right;points=[];portConstraint=eastwest;dashed=1;sketch=1;" vertex="1" parent="uFHnxJC9vxhWgr_NbSu9-14">
          <mxGeometry y="26" width="160" height="8" as="geometry" />
        </mxCell>
        <mxCell id="uFHnxJC9vxhWgr_NbSu9-16" value="+ method(type): type" style="text;strokeColor=none;fillColor=none;align=left;verticalAlign=top;spacingLeft=4;spacingRight=4;overflow=hidden;rotatable=0;points=[[0,0.5],[1,0.5]];portConstraint=eastwest;dashed=1;sketch=1;" vertex="1" parent="uFHnxJC9vxhWgr_NbSu9-14">
          <mxGeometry y="34" width="160" height="26" as="geometry" />
        </mxCell>
        <mxCell id="uFHnxJC9vxhWgr_NbSu9-17" value="DaApprovalHandler" style="swimlane;fontStyle=1;align=center;verticalAlign=top;childLayout=stackLayout;horizontal=1;startSize=26;horizontalStack=0;resizeParent=1;resizeParentMax=0;resizeLast=0;collapsible=1;marginBottom=0;sketch=1;fillColor=none;" vertex="1" parent="1">
          <mxGeometry x="516.5" y="610" width="160" height="60" as="geometry" />
        </mxCell>
        <mxCell id="uFHnxJC9vxhWgr_NbSu9-18" value="" style="line;strokeWidth=1;fillColor=none;align=left;verticalAlign=middle;spacingTop=-1;spacingLeft=3;spacingRight=3;rotatable=0;labelPosition=right;points=[];portConstraint=eastwest;dashed=1;sketch=1;" vertex="1" parent="uFHnxJC9vxhWgr_NbSu9-17">
          <mxGeometry y="26" width="160" height="8" as="geometry" />
        </mxCell>
        <mxCell id="uFHnxJC9vxhWgr_NbSu9-19" value="+ method(type): type" style="text;strokeColor=none;fillColor=none;align=left;verticalAlign=top;spacingLeft=4;spacingRight=4;overflow=hidden;rotatable=0;points=[[0,0.5],[1,0.5]];portConstraint=eastwest;dashed=1;sketch=1;" vertex="1" parent="uFHnxJC9vxhWgr_NbSu9-17">
          <mxGeometry y="34" width="160" height="26" as="geometry" />
        </mxCell>
        <mxCell id="uFHnxJC9vxhWgr_NbSu9-20" value="Extends" style="endArrow=block;endSize=16;endFill=0;html=1;rounded=0;exitX=0.5;exitY=1;exitDx=0;exitDy=0;entryX=0.5;entryY=0;entryDx=0;entryDy=0;" edge="1" parent="1" source="uFHnxJC9vxhWgr_NbSu9-3" target="uFHnxJC9vxhWgr_NbSu9-8">
          <mxGeometry width="160" relative="1" as="geometry">
            <mxPoint x="350" y="570" as="sourcePoint" />
            <mxPoint x="510" y="570" as="targetPoint" />
          </mxGeometry>
        </mxCell>
        <mxCell id="uFHnxJC9vxhWgr_NbSu9-21" value="Extends" style="endArrow=block;endSize=16;endFill=0;html=1;rounded=0;exitX=0.5;exitY=1;exitDx=0;exitDy=0;entryX=0.5;entryY=0;entryDx=0;entryDy=0;" edge="1" parent="1" source="uFHnxJC9vxhWgr_NbSu9-3" target="uFHnxJC9vxhWgr_NbSu9-11">
          <mxGeometry width="160" relative="1" as="geometry">
            <mxPoint x="490" y="500" as="sourcePoint" />
            <mxPoint x="136.5" y="620" as="targetPoint" />
          </mxGeometry>
        </mxCell>
        <mxCell id="uFHnxJC9vxhWgr_NbSu9-22" value="Extends" style="endArrow=block;endSize=16;endFill=0;html=1;rounded=0;exitX=0.5;exitY=1;exitDx=0;exitDy=0;entryX=0.5;entryY=0;entryDx=0;entryDy=0;" edge="1" parent="1" source="uFHnxJC9vxhWgr_NbSu9-3" target="uFHnxJC9vxhWgr_NbSu9-17">
          <mxGeometry width="160" relative="1" as="geometry">
            <mxPoint x="500" y="510" as="sourcePoint" />
            <mxPoint x="146.5" y="630" as="targetPoint" />
          </mxGeometry>
        </mxCell>
        <mxCell id="uFHnxJC9vxhWgr_NbSu9-23" value="Extends" style="endArrow=block;endSize=16;endFill=0;html=1;rounded=0;exitX=0.5;exitY=1;exitDx=0;exitDy=0;entryX=0.5;entryY=0;entryDx=0;entryDy=0;" edge="1" parent="1" source="uFHnxJC9vxhWgr_NbSu9-3" target="uFHnxJC9vxhWgr_NbSu9-14">
          <mxGeometry width="160" relative="1" as="geometry">
            <mxPoint x="490" y="500" as="sourcePoint" />
            <mxPoint x="606.5" y="620" as="targetPoint" />
          </mxGeometry>
        </mxCell>
        <mxCell id="uFHnxJC9vxhWgr_NbSu9-24" value="CustomerApprovalBuildParamHelperService&#xa;" style="swimlane;fontStyle=1;align=center;verticalAlign=top;childLayout=stackLayout;horizontal=1;startSize=26;horizontalStack=0;resizeParent=1;resizeParentMax=0;resizeLast=0;collapsible=1;marginBottom=0;sketch=1;fillColor=#f8cecc;strokeColor=#b85450;" vertex="1" parent="1">
          <mxGeometry x="920" y="200" width="330" height="60" as="geometry" />
        </mxCell>
        <mxCell id="uFHnxJC9vxhWgr_NbSu9-26" value="" style="line;strokeWidth=1;fillColor=#f8cecc;align=left;verticalAlign=middle;spacingTop=-1;spacingLeft=3;spacingRight=3;rotatable=0;labelPosition=right;points=[];portConstraint=eastwest;dashed=1;sketch=1;strokeColor=#b85450;" vertex="1" parent="uFHnxJC9vxhWgr_NbSu9-24">
          <mxGeometry y="26" width="330" height="8" as="geometry" />
        </mxCell>
        <mxCell id="uFHnxJC9vxhWgr_NbSu9-27" value="+ buildCustomerInfoMap(req): Map" style="text;strokeColor=#b85450;fillColor=#f8cecc;align=left;verticalAlign=top;spacingLeft=4;spacingRight=4;overflow=hidden;rotatable=0;points=[[0,0.5],[1,0.5]];portConstraint=eastwest;dashed=1;sketch=1;" vertex="1" parent="uFHnxJC9vxhWgr_NbSu9-24">
          <mxGeometry y="34" width="330" height="26" as="geometry" />
        </mxCell>
        <mxCell id="uFHnxJC9vxhWgr_NbSu9-28" value="CustomerOperateApprovalHelperService" style="swimlane;fontStyle=1;align=center;verticalAlign=top;childLayout=stackLayout;horizontal=1;startSize=26;horizontalStack=0;resizeParent=1;resizeParentMax=0;resizeLast=0;collapsible=1;marginBottom=0;sketch=1;fillColor=#f8cecc;strokeColor=#b85450;" vertex="1" parent="1">
          <mxGeometry x="920" y="330" width="330" height="60" as="geometry" />
        </mxCell>
        <mxCell id="uFHnxJC9vxhWgr_NbSu9-29" value="" style="line;strokeWidth=1;fillColor=#f8cecc;align=left;verticalAlign=middle;spacingTop=-1;spacingLeft=3;spacingRight=3;rotatable=0;labelPosition=right;points=[];portConstraint=eastwest;dashed=1;sketch=1;strokeColor=#b85450;" vertex="1" parent="uFHnxJC9vxhWgr_NbSu9-28">
          <mxGeometry y="26" width="330" height="8" as="geometry" />
        </mxCell>
        <mxCell id="uFHnxJC9vxhWgr_NbSu9-30" value="+ updateApproveChangedInfo(...): void" style="text;strokeColor=#b85450;fillColor=#f8cecc;align=left;verticalAlign=top;spacingLeft=4;spacingRight=4;overflow=hidden;rotatable=0;points=[[0,0.5],[1,0.5]];portConstraint=eastwest;dashed=1;sketch=1;" vertex="1" parent="uFHnxJC9vxhWgr_NbSu9-28">
          <mxGeometry y="34" width="330" height="26" as="geometry" />
        </mxCell>
        <mxCell id="uFHnxJC9vxhWgr_NbSu9-31" value="CustomerApprovalOperateRiskHelperService" style="swimlane;fontStyle=1;align=center;verticalAlign=top;childLayout=stackLayout;horizontal=1;startSize=26;horizontalStack=0;resizeParent=1;resizeParentMax=0;resizeLast=0;collapsible=1;marginBottom=0;sketch=1;fillColor=#f8cecc;strokeColor=#b85450;" vertex="1" parent="1">
          <mxGeometry x="920" y="440" width="330" height="100" as="geometry" />
        </mxCell>
        <mxCell id="uFHnxJC9vxhWgr_NbSu9-32" value="" style="line;strokeWidth=1;fillColor=#f8cecc;align=left;verticalAlign=middle;spacingTop=-1;spacingLeft=3;spacingRight=3;rotatable=0;labelPosition=right;points=[];portConstraint=eastwest;dashed=1;sketch=1;strokeColor=#b85450;" vertex="1" parent="uFHnxJC9vxhWgr_NbSu9-31">
          <mxGeometry y="26" width="330" height="8" as="geometry" />
        </mxCell>
        <mxCell id="uFHnxJC9vxhWgr_NbSu9-33" value="+ updateRiskManagement(type): type&#xa;+ updateCustomerRisk(...):void&#xa;" style="text;strokeColor=#b85450;fillColor=#f8cecc;align=left;verticalAlign=top;spacingLeft=4;spacingRight=4;overflow=hidden;rotatable=0;points=[[0,0.5],[1,0.5]];portConstraint=eastwest;dashed=1;sketch=1;" vertex="1" parent="uFHnxJC9vxhWgr_NbSu9-31">
          <mxGeometry y="34" width="330" height="66" as="geometry" />
        </mxCell>
        <mxCell id="uFHnxJC9vxhWgr_NbSu9-34" value="" style="endArrow=diamondThin;endFill=1;endSize=24;html=1;rounded=0;entryX=1;entryY=0.5;entryDx=0;entryDy=0;exitX=0.006;exitY=0.37;exitDx=0;exitDy=0;exitPerimeter=0;" edge="1" parent="1" source="uFHnxJC9vxhWgr_NbSu9-24" target="uFHnxJC9vxhWgr_NbSu9-3">
          <mxGeometry width="160" relative="1" as="geometry">
            <mxPoint x="690" y="280" as="sourcePoint" />
            <mxPoint x="850" y="280" as="targetPoint" />
          </mxGeometry>
        </mxCell>
        <mxCell id="uFHnxJC9vxhWgr_NbSu9-35" value="" style="endArrow=diamondThin;endFill=1;endSize=24;html=1;rounded=0;entryX=1;entryY=0.75;entryDx=0;entryDy=0;exitX=0;exitY=0.25;exitDx=0;exitDy=0;" edge="1" parent="1" source="uFHnxJC9vxhWgr_NbSu9-28" target="uFHnxJC9vxhWgr_NbSu9-3">
          <mxGeometry width="160" relative="1" as="geometry">
            <mxPoint x="931.98" y="232.20000000000005" as="sourcePoint" />
            <mxPoint x="610" y="455" as="targetPoint" />
          </mxGeometry>
        </mxCell>
        <mxCell id="uFHnxJC9vxhWgr_NbSu9-36" value="" style="endArrow=diamondThin;endFill=1;endSize=24;html=1;rounded=0;entryX=1.002;entryY=0.86;entryDx=0;entryDy=0;exitX=-0.006;exitY=0.166;exitDx=0;exitDy=0;exitPerimeter=0;entryPerimeter=0;" edge="1" parent="1" source="uFHnxJC9vxhWgr_NbSu9-31" target="uFHnxJC9vxhWgr_NbSu9-3">
          <mxGeometry width="160" relative="1" as="geometry">
            <mxPoint x="941.98" y="242.20000000000005" as="sourcePoint" />
            <mxPoint x="620" y="465" as="targetPoint" />
          </mxGeometry>
        </mxCell>
        <mxCell id="uFHnxJC9vxhWgr_NbSu9-42" value="BusinessAccountApprovalHandler" style="swimlane;fontStyle=1;align=center;verticalAlign=top;childLayout=stackLayout;horizontal=1;startSize=26;horizontalStack=0;resizeParent=1;resizeParentMax=0;resizeLast=0;collapsible=1;marginBottom=0;sketch=1;fillColor=#f8cecc;strokeColor=#b85450;" vertex="1" parent="1">
          <mxGeometry x="980" y="610" width="220" height="60" as="geometry" />
        </mxCell>
        <mxCell id="uFHnxJC9vxhWgr_NbSu9-43" value="" style="line;strokeWidth=1;fillColor=#f8cecc;align=left;verticalAlign=middle;spacingTop=-1;spacingLeft=3;spacingRight=3;rotatable=0;labelPosition=right;points=[];portConstraint=eastwest;dashed=1;sketch=1;strokeColor=#b85450;" vertex="1" parent="uFHnxJC9vxhWgr_NbSu9-42">
          <mxGeometry y="26" width="220" height="8" as="geometry" />
        </mxCell>
        <mxCell id="uFHnxJC9vxhWgr_NbSu9-44" value="+ method(type): type" style="text;strokeColor=#b85450;fillColor=#f8cecc;align=left;verticalAlign=top;spacingLeft=4;spacingRight=4;overflow=hidden;rotatable=0;points=[[0,0.5],[1,0.5]];portConstraint=eastwest;dashed=1;sketch=1;" vertex="1" parent="uFHnxJC9vxhWgr_NbSu9-42">
          <mxGeometry y="34" width="220" height="26" as="geometry" />
        </mxCell>
        <mxCell id="uFHnxJC9vxhWgr_NbSu9-45" value="Extends" style="endArrow=block;endSize=16;endFill=0;html=1;rounded=0;exitX=0.5;exitY=1;exitDx=0;exitDy=0;entryX=0.5;entryY=0;entryDx=0;entryDy=0;" edge="1" parent="1" source="uFHnxJC9vxhWgr_NbSu9-3" target="uFHnxJC9vxhWgr_NbSu9-42">
          <mxGeometry width="160" relative="1" as="geometry">
            <mxPoint x="490" y="500" as="sourcePoint" />
            <mxPoint x="843.5" y="619.9999999999998" as="targetPoint" />
          </mxGeometry>
        </mxCell>
        <mxCell id="uFHnxJC9vxhWgr_NbSu9-46" value="" style="rounded=1;whiteSpace=wrap;html=1;sketch=1;fillColor=#f8cecc;strokeColor=#b85450;" vertex="1" parent="1">
          <mxGeometry x="1340" y="80" width="100" height="40" as="geometry" />
        </mxCell>
        <mxCell id="uFHnxJC9vxhWgr_NbSu9-47" value="新类" style="text;html=1;strokeColor=none;fillColor=none;align=center;verticalAlign=middle;whiteSpace=wrap;rounded=0;dashed=1;sketch=1;" vertex="1" parent="1">
          <mxGeometry x="1460" y="90" width="60" height="30" as="geometry" />
        </mxCell>
      </root>
    </mxGraphModel>
  </diagram>
</mxfile>
